<svg width="78" height="44" xmlns="http://www.w3.org/2000/svg" xml:space="preserve" enable-background="new 0 0 76.266 56.69" version="1.1">
 <g transform="translate(1, 0)">
  <title>Layer 1</title>
  <path id="svg_1" d="m38.38416,1.68089c-20.514,0 -37.203,9.126 -37.203,20.344c0,11.208 16.689,20.327 37.205,20.327s37.206,-9.119 37.206,-20.327c0,-11.218 -16.692,-20.344 -37.208,-20.344z" stroke="#FFFFFF" fill="#FFFFFF"/>
  <path id="svg_2" d="m37.87984,0.75489c21.052,0 38.133,9.522 38.133,21.26s-17.079,21.26 -38.131,21.26c-21.049,0 -38.136,-9.523 -38.136,-21.261s17.085,-21.259 38.134,-21.259zm0,1.916c-19.985,0 -36.203,8.679 -36.203,19.344c0,10.666 16.22,19.327 36.205,19.327c19.981,0 36.206,-8.661 36.206,-19.327c0,-10.665 -16.227,-19.344 -36.208,-19.344zm-6.699,21.386l-7.503,0c0.082,1.848 1.12,2.707 2.672,2.707c1.157,0 1.947,-0.652 2.148,-1.307l2.461,0c-0.633,2.235 -2.456,3.271 -4.708,3.271c-3.199,0 -5.183,-2.196 -5.183,-5.339c0,-3.043 2.101,-5.359 5.183,-5.359c3.456,-0.001 5.125,2.905 4.93,6.027zm-5.008,-4.113c-1.556,0 -2.358,1.04 -2.483,2.37l4.875,0c-0.19,-1.419 -0.785,-2.37 -2.392,-2.37zm37.503,4.113l-7.502,0c0.081,1.848 1.12,2.707 2.672,2.707c1.157,0 1.946,-0.652 2.147,-1.307l2.461,0c-0.632,2.235 -2.456,3.271 -4.707,3.271c-3.2,0 -5.183,-2.196 -5.183,-5.339c0,-3.043 2.101,-5.359 5.183,-5.359c3.456,-0.001 5.125,2.905 4.929,6.027zm-5.007,-4.113c-1.555,0 -2.358,1.04 -2.483,2.37l4.874,0c-0.189,-1.419 -0.785,-2.37 -2.391,-2.37zm-50.733,8.508l2.788,0l0,-6.045l6.016,0l0,6.045l2.786,0l0,-14.045l-2.786,0l0,5.752l-6.016,0l0,-5.752l-2.788,0l0,14.045zm24.785,0l2.616,0l0,-5.488c0,-2.062 0.729,-2.906 2.239,-2.906c1.296,0 1.879,0.825 1.879,2.493l0,5.901l2.617,0l0,-6.242c0,-2.513 -0.746,-4.181 -3.712,-4.181c-1.178,0 -2.396,0.549 -3.103,1.688l-0.058,0l0,-1.414l-2.479,0l0,10.149l0.001,0zm11.588,0l2.618,0l0,-5.495l3.866,5.495l3.257,0l-4.262,-5.692l3.78,-4.456l-3.128,0l-3.514,4.377l0,-8.273l-2.618,0l0,14.044l0.001,0zm20.905,0l2.616,0l0,-14.046l-2.616,0l0,14.046z" fill="#E1000F"/>
 </g>
</svg>