<svg width="78" height="78" xmlns="http://www.w3.org/2000/svg" xml:space="preserve" enable-background="new 0 0 76.266 56.69" version="1.1">
<defs></defs>
<g>
<path id="svg_1" d=" M 39.465,19.3755 C 19.2423,19.3755 2.7903,28.3719 2.7903,39.4306 2.7903,50.4795 19.2423,59.469 39.467,59.469 59.6917,59.469 76.1447,50.4795 76.1447,39.4306 76.1447,28.3719 59.6897,19.3755 39.465,19.3755 Z" style="fill:#ffffff;fill-opacity:1;stroke:#ffffff;stroke-width:0;stroke-opacity:1;stroke-linecap:butt;stroke-miterlimit:4;stroke-dashoffset:0;"/>
<path id="svg_2" d=" M 38.9678,18.4627 C 59.7209,18.4627 76.5593,27.8495 76.5593,39.4208 76.5593,50.9921 59.7228,60.3789 38.9698,60.3789 18.2197,60.3789 1.3753,50.9911 1.3753,39.4198 1.3753,27.8485 18.2177,18.4627 38.9678,18.4627 M 38.9678,20.3515 C 19.2666,20.3515 3.2789,28.9072 3.2789,39.4208 3.2789,49.9353 19.2686,58.4733 38.9698,58.4733 58.667,58.4733 74.6617,49.9353 74.6617,39.4208 74.6617,28.9072 58.6651,20.3515 38.9678,20.3515 M 32.3639,41.4338 24.9675,41.4338 C 25.0483,43.2556 26.0716,44.1024 27.6015,44.1024 28.7421,44.1024 29.5209,43.4596 29.719,42.8139 L 32.1451,42.8139 C 31.5211,45.0172 29.724,46.0385 27.5039,46.0385 24.3504,46.0385 22.3945,43.8736 22.3945,40.7753 22.3945,37.7755 24.4657,35.4924 27.5039,35.4924 30.9109,35.4914 32.5562,38.3561 32.3639,41.4338 M 27.427,37.3792 C 25.8931,37.3792 25.1025,38.4044 24.9793,39.7155 L 29.7851,39.7155 C 29.5978,38.3167 29.0112,37.3792 27.427,37.3792 M 64.3975,41.4338 57.002,41.4338 C 57.0819,43.2556 58.1061,44.1024 59.6361,44.1024 60.7767,44.1024 61.5545,43.4596 61.7526,42.8139 L 64.1787,42.8139 C 63.5556,45.0172 61.7575,46.0385 59.5385,46.0385 56.3839,46.0385 54.4291,43.8736 54.4291,40.7753 54.4291,37.7755 56.5003,35.4924 59.5385,35.4924 62.9454,35.4914 64.5907,38.3561 64.3975,41.4338 M 59.4616,37.3792 C 57.9287,37.3792 57.1371,38.4044 57.0139,39.7155 L 61.8187,39.7155 C 61.6323,38.3167 61.0448,37.3792 59.4616,37.3792 M 9.449,45.7664 12.1974,45.7664 12.1974,39.8072 18.128,39.8072 18.128,45.7664 20.8744,45.7664 20.8744,31.9208 18.128,31.9208 18.128,37.5911 12.1974,37.5911 12.1974,31.9208 9.449,31.9208 9.449,45.7664 M 33.8821,45.7664 36.4609,45.7664 36.4609,40.3563 C 36.4609,38.3236 37.1796,37.4916 38.6681,37.4916 39.9457,37.4916 40.5204,38.3049 40.5204,39.9492 L 40.5204,45.7664 43.1003,45.7664 43.1003,39.613 C 43.1003,37.1357 42.3649,35.4914 39.441,35.4914 38.2797,35.4914 37.079,36.0326 36.3821,37.1554 L 36.3249,37.1554 36.3249,35.7615 33.8811,35.7615 33.8811,45.7664 33.8821,45.7664 M 45.3055,45.7664 47.8863,45.7664 47.8863,40.3494 51.6975,45.7664 54.9083,45.7664 50.7067,40.1552 54.433,35.7625 51.3495,35.7625 47.8854,40.0773 47.8854,31.9218 45.3045,31.9218 45.3045,45.7664 45.3055,45.7664 M 65.9138,45.7664 68.4925,45.7664 68.4925,31.9198 65.9138,31.9198 65.9138,45.7664 Z" style="fill:#e1000f;fill-opacity:1;stroke:#0;stroke-width:0;stroke-opacity:1;stroke-linecap:butt;stroke-miterlimit:4;stroke-dashoffset:0;"/>
</g>
</svg>
